<?xml version="1.0" encoding="utf-8" standalone="no"?>
<!DOCTYPE svg PUBLIC "-//W3C//DTD SVG 1.1//EN"
  "http://www.w3.org/Graphics/SVG/1.1/DTD/svg11.dtd">
<svg height="288pt" version="1.1" viewBox="0 0 432 288" width="432pt" xmlns="http://www.w3.org/2000/svg" xmlns:xlink="http://www.w3.org/1999/xlink">
 <metadata>
  <rdf:RDF xmlns:cc="http://creativecommons.org/ns#" xmlns:dc="http://purl.org/dc/elements/1.1/" xmlns:rdf="http://www.w3.org/1999/02/22-rdf-syntax-ns#">
   <cc:Work>
    <dc:type rdf:resource="http://purl.org/dc/dcmitype/StillImage"/>
    <dc:date>2021-07-13T15:14:56.136067</dc:date>
    <dc:format>image/svg+xml</dc:format>
    <dc:creator>
     <cc:Agent>
      <dc:title>Matplotlib v3.4.2, https://matplotlib.org/</dc:title>
     </cc:Agent>
    </dc:creator>
   </cc:Work>
  </rdf:RDF>
 </metadata>
 <defs>
  <style type="text/css">*{stroke-linecap:butt;stroke-linejoin:round;}</style>
 </defs>
 <g id="figure_1">
  <g id="patch_1">
   <path d="M 0 288 
L 432 288 
L 432 0 
L 0 0 
z
" style="fill:none;"/>
  </g>
  <g id="axes_1">
   <g id="patch_2">
    <path d="M 308.376 143.28 
C 308.376 126.567127 303.558807 110.203194 294.503686 96.155955 
C 285.448566 82.108717 272.533632 70.964743 257.311899 64.064092 
C 242.090167 57.163441 225.197249 54.794263 208.664513 57.241451 
C 192.131776 59.688638 176.649576 66.850004 164.079641 77.864398 
L 221.4 143.28 
L 308.376 143.28 
z
" style="fill:#1f77b4;"/>
   </g>
   <g id="patch_3">
    <path d="M 164.079641 77.864398 
C 152.119005 88.344893 143.258746 101.907707 138.466726 117.071286 
C 133.674706 132.234865 133.132006 148.426208 136.897909 163.876631 
L 221.4 143.28 
L 164.079641 77.864398 
z
" style="fill:#ff7f0e;"/>
   </g>
   <g id="patch_4">
    <path d="M 136.897909 163.876631 
C 139.670656 175.25242 144.712202 185.95204 151.719585 195.332515 
C 158.726967 204.71299 167.556951 212.582578 177.678915 218.468372 
L 221.4 143.28 
L 136.897909 163.876631 
z
" style="fill:#2ca02c;"/>
   </g>
   <g id="patch_5">
    <path d="M 177.678915 218.468372 
C 185.2645 222.879294 193.474105 226.116986 202.028511 228.071332 
C 210.582917 230.025678 219.384031 230.674266 228.132516 229.995038 
L 221.4 143.28 
L 177.678915 218.468372 
z
" style="fill:#d62728;"/>
   </g>
   <g id="patch_6">
    <path d="M 228.132516 229.995038 
C 234.694855 229.485541 241.1782 228.232759 247.457941 226.260771 
C 253.737682 224.288782 259.773325 221.610303 265.448863 218.276815 
L 221.4 143.28 
L 228.132516 229.995038 
z
" style="fill:#9467bd;"/>
   </g>
   <g id="patch_7">
    <path d="M 265.448863 218.276815 
C 269.540707 215.873499 273.429007 213.139331 277.074815 210.1017 
C 280.720622 207.064069 284.111721 203.733153 287.214143 200.142318 
L 221.4 143.28 
L 265.448863 218.276815 
z
" style="fill:#8c564b;"/>
   </g>
   <g id="patch_8">
    <path d="M 287.214143 200.142318 
C 290.14338 196.751931 292.806262 193.140259 295.179001 189.339566 
C 297.551739 185.538873 299.627248 181.560509 301.386986 177.440014 
L 221.4 143.28 
L 287.214143 200.142318 
z
" style="fill:#e377c2;"/>
   </g>
   <g id="patch_9">
    <path d="M 301.386986 177.440014 
C 302.961144 173.754065 304.278637 169.963709 305.330043 166.096057 
C 306.38145 162.228404 307.164257 158.292696 307.672866 154.317082 
L 221.4 143.28 
L 301.386986 177.440014 
z
" style="fill:#7f7f7f;"/>
   </g>
   <g id="patch_10">
    <path d="M 307.672866 154.317082 
C 307.814554 153.209555 307.934903 152.099403 308.033844 150.987242 
C 308.132786 149.875082 308.210302 148.761119 308.26635 147.645974 
L 221.4 143.28 
L 307.672866 154.317082 
z
" style="fill:#bcbd22;"/>
   </g>
   <g id="patch_11">
    <path d="M 308.26635 147.645974 
C 308.302893 146.918913 308.330306 146.191422 308.348583 145.463673 
C 308.36686 144.735924 308.376 144.007974 308.376 143.279996 
L 221.4 143.28 
L 308.26635 147.645974 
z
" style="fill:#17becf;"/>
   </g>
   <g id="matplotlib.axis_1"/>
   <g id="matplotlib.axis_2"/>
   <g id="text_1">
    <!-- numwanting -->
    <g transform="translate(260.903089 58.901876)scale(0.1 -0.1)">
     <defs>
      <path d="M 3513 2113 
L 3513 0 
L 2938 0 
L 2938 2094 
Q 2938 2591 2744 2837 
Q 2550 3084 2163 3084 
Q 1697 3084 1428 2787 
Q 1159 2491 1159 1978 
L 1159 0 
L 581 0 
L 581 3500 
L 1159 3500 
L 1159 2956 
Q 1366 3272 1645 3428 
Q 1925 3584 2291 3584 
Q 2894 3584 3203 3211 
Q 3513 2838 3513 2113 
z
" id="DejaVuSans-6e" transform="scale(0.015625)"/>
      <path d="M 544 1381 
L 544 3500 
L 1119 3500 
L 1119 1403 
Q 1119 906 1312 657 
Q 1506 409 1894 409 
Q 2359 409 2629 706 
Q 2900 1003 2900 1516 
L 2900 3500 
L 3475 3500 
L 3475 0 
L 2900 0 
L 2900 538 
Q 2691 219 2414 64 
Q 2138 -91 1772 -91 
Q 1169 -91 856 284 
Q 544 659 544 1381 
z
M 1991 3584 
L 1991 3584 
z
" id="DejaVuSans-75" transform="scale(0.015625)"/>
      <path d="M 3328 2828 
Q 3544 3216 3844 3400 
Q 4144 3584 4550 3584 
Q 5097 3584 5394 3201 
Q 5691 2819 5691 2113 
L 5691 0 
L 5113 0 
L 5113 2094 
Q 5113 2597 4934 2840 
Q 4756 3084 4391 3084 
Q 3944 3084 3684 2787 
Q 3425 2491 3425 1978 
L 3425 0 
L 2847 0 
L 2847 2094 
Q 2847 2600 2669 2842 
Q 2491 3084 2119 3084 
Q 1678 3084 1418 2786 
Q 1159 2488 1159 1978 
L 1159 0 
L 581 0 
L 581 3500 
L 1159 3500 
L 1159 2956 
Q 1356 3278 1631 3431 
Q 1906 3584 2284 3584 
Q 2666 3584 2933 3390 
Q 3200 3197 3328 2828 
z
" id="DejaVuSans-6d" transform="scale(0.015625)"/>
      <path d="M 269 3500 
L 844 3500 
L 1563 769 
L 2278 3500 
L 2956 3500 
L 3675 769 
L 4391 3500 
L 4966 3500 
L 4050 0 
L 3372 0 
L 2619 2869 
L 1863 0 
L 1184 0 
L 269 3500 
z
" id="DejaVuSans-77" transform="scale(0.015625)"/>
      <path d="M 2194 1759 
Q 1497 1759 1228 1600 
Q 959 1441 959 1056 
Q 959 750 1161 570 
Q 1363 391 1709 391 
Q 2188 391 2477 730 
Q 2766 1069 2766 1631 
L 2766 1759 
L 2194 1759 
z
M 3341 1997 
L 3341 0 
L 2766 0 
L 2766 531 
Q 2569 213 2275 61 
Q 1981 -91 1556 -91 
Q 1019 -91 701 211 
Q 384 513 384 1019 
Q 384 1609 779 1909 
Q 1175 2209 1959 2209 
L 2766 2209 
L 2766 2266 
Q 2766 2663 2505 2880 
Q 2244 3097 1772 3097 
Q 1472 3097 1187 3025 
Q 903 2953 641 2809 
L 641 3341 
Q 956 3463 1253 3523 
Q 1550 3584 1831 3584 
Q 2591 3584 2966 3190 
Q 3341 2797 3341 1997 
z
" id="DejaVuSans-61" transform="scale(0.015625)"/>
      <path d="M 1172 4494 
L 1172 3500 
L 2356 3500 
L 2356 3053 
L 1172 3053 
L 1172 1153 
Q 1172 725 1289 603 
Q 1406 481 1766 481 
L 2356 481 
L 2356 0 
L 1766 0 
Q 1100 0 847 248 
Q 594 497 594 1153 
L 594 3053 
L 172 3053 
L 172 3500 
L 594 3500 
L 594 4494 
L 1172 4494 
z
" id="DejaVuSans-74" transform="scale(0.015625)"/>
      <path d="M 603 3500 
L 1178 3500 
L 1178 0 
L 603 0 
L 603 3500 
z
M 603 4863 
L 1178 4863 
L 1178 4134 
L 603 4134 
L 603 4863 
z
" id="DejaVuSans-69" transform="scale(0.015625)"/>
      <path d="M 2906 1791 
Q 2906 2416 2648 2759 
Q 2391 3103 1925 3103 
Q 1463 3103 1205 2759 
Q 947 2416 947 1791 
Q 947 1169 1205 825 
Q 1463 481 1925 481 
Q 2391 481 2648 825 
Q 2906 1169 2906 1791 
z
M 3481 434 
Q 3481 -459 3084 -895 
Q 2688 -1331 1869 -1331 
Q 1566 -1331 1297 -1286 
Q 1028 -1241 775 -1147 
L 775 -588 
Q 1028 -725 1275 -790 
Q 1522 -856 1778 -856 
Q 2344 -856 2625 -561 
Q 2906 -266 2906 331 
L 2906 616 
Q 2728 306 2450 153 
Q 2172 0 1784 0 
Q 1141 0 747 490 
Q 353 981 353 1791 
Q 353 2603 747 3093 
Q 1141 3584 1784 3584 
Q 2172 3584 2450 3431 
Q 2728 3278 2906 2969 
L 2906 3500 
L 3481 3500 
L 3481 434 
z
" id="DejaVuSans-67" transform="scale(0.015625)"/>
     </defs>
     <use xlink:href="#DejaVuSans-6e"/>
     <use x="63.378906" xlink:href="#DejaVuSans-75"/>
     <use x="126.757812" xlink:href="#DejaVuSans-6d"/>
     <use x="224.169922" xlink:href="#DejaVuSans-77"/>
     <use x="305.957031" xlink:href="#DejaVuSans-61"/>
     <use x="367.236328" xlink:href="#DejaVuSans-6e"/>
     <use x="430.615234" xlink:href="#DejaVuSans-74"/>
     <use x="469.824219" xlink:href="#DejaVuSans-69"/>
     <use x="497.607422" xlink:href="#DejaVuSans-6e"/>
     <use x="560.986328" xlink:href="#DejaVuSans-67"/>
    </g>
   </g>
   <g id="text_2">
    <!-- numgeeklists -->
    <g transform="translate(63.417149 117.20979)scale(0.1 -0.1)">
     <defs>
      <path d="M 3597 1894 
L 3597 1613 
L 953 1613 
Q 991 1019 1311 708 
Q 1631 397 2203 397 
Q 2534 397 2845 478 
Q 3156 559 3463 722 
L 3463 178 
Q 3153 47 2828 -22 
Q 2503 -91 2169 -91 
Q 1331 -91 842 396 
Q 353 884 353 1716 
Q 353 2575 817 3079 
Q 1281 3584 2069 3584 
Q 2775 3584 3186 3129 
Q 3597 2675 3597 1894 
z
M 3022 2063 
Q 3016 2534 2758 2815 
Q 2500 3097 2075 3097 
Q 1594 3097 1305 2825 
Q 1016 2553 972 2059 
L 3022 2063 
z
" id="DejaVuSans-65" transform="scale(0.015625)"/>
      <path d="M 581 4863 
L 1159 4863 
L 1159 1991 
L 2875 3500 
L 3609 3500 
L 1753 1863 
L 3688 0 
L 2938 0 
L 1159 1709 
L 1159 0 
L 581 0 
L 581 4863 
z
" id="DejaVuSans-6b" transform="scale(0.015625)"/>
      <path d="M 603 4863 
L 1178 4863 
L 1178 0 
L 603 0 
L 603 4863 
z
" id="DejaVuSans-6c" transform="scale(0.015625)"/>
      <path d="M 2834 3397 
L 2834 2853 
Q 2591 2978 2328 3040 
Q 2066 3103 1784 3103 
Q 1356 3103 1142 2972 
Q 928 2841 928 2578 
Q 928 2378 1081 2264 
Q 1234 2150 1697 2047 
L 1894 2003 
Q 2506 1872 2764 1633 
Q 3022 1394 3022 966 
Q 3022 478 2636 193 
Q 2250 -91 1575 -91 
Q 1294 -91 989 -36 
Q 684 19 347 128 
L 347 722 
Q 666 556 975 473 
Q 1284 391 1588 391 
Q 1994 391 2212 530 
Q 2431 669 2431 922 
Q 2431 1156 2273 1281 
Q 2116 1406 1581 1522 
L 1381 1569 
Q 847 1681 609 1914 
Q 372 2147 372 2553 
Q 372 3047 722 3315 
Q 1072 3584 1716 3584 
Q 2034 3584 2315 3537 
Q 2597 3491 2834 3397 
z
" id="DejaVuSans-73" transform="scale(0.015625)"/>
     </defs>
     <use xlink:href="#DejaVuSans-6e"/>
     <use x="63.378906" xlink:href="#DejaVuSans-75"/>
     <use x="126.757812" xlink:href="#DejaVuSans-6d"/>
     <use x="224.169922" xlink:href="#DejaVuSans-67"/>
     <use x="287.646484" xlink:href="#DejaVuSans-65"/>
     <use x="349.169922" xlink:href="#DejaVuSans-65"/>
     <use x="410.693359" xlink:href="#DejaVuSans-6b"/>
     <use x="468.603516" xlink:href="#DejaVuSans-6c"/>
     <use x="496.386719" xlink:href="#DejaVuSans-69"/>
     <use x="524.169922" xlink:href="#DejaVuSans-73"/>
     <use x="576.269531" xlink:href="#DejaVuSans-74"/>
     <use x="615.478516" xlink:href="#DejaVuSans-73"/>
    </g>
   </g>
   <g id="text_3">
    <!-- siteviews -->
    <g transform="translate(98.453106 203.297141)scale(0.1 -0.1)">
     <defs>
      <path d="M 191 3500 
L 800 3500 
L 1894 563 
L 2988 3500 
L 3597 3500 
L 2284 0 
L 1503 0 
L 191 3500 
z
" id="DejaVuSans-76" transform="scale(0.015625)"/>
     </defs>
     <use xlink:href="#DejaVuSans-73"/>
     <use x="52.099609" xlink:href="#DejaVuSans-69"/>
     <use x="79.882812" xlink:href="#DejaVuSans-74"/>
     <use x="119.091797" xlink:href="#DejaVuSans-65"/>
     <use x="180.615234" xlink:href="#DejaVuSans-76"/>
     <use x="239.794922" xlink:href="#DejaVuSans-69"/>
     <use x="267.578125" xlink:href="#DejaVuSans-65"/>
     <use x="329.101562" xlink:href="#DejaVuSans-77"/>
     <use x="410.888672" xlink:href="#DejaVuSans-73"/>
    </g>
   </g>
   <g id="text_4">
    <!-- numcomments -->
    <g transform="translate(124.956987 239.30984)scale(0.1 -0.1)">
     <defs>
      <path d="M 3122 3366 
L 3122 2828 
Q 2878 2963 2633 3030 
Q 2388 3097 2138 3097 
Q 1578 3097 1268 2742 
Q 959 2388 959 1747 
Q 959 1106 1268 751 
Q 1578 397 2138 397 
Q 2388 397 2633 464 
Q 2878 531 3122 666 
L 3122 134 
Q 2881 22 2623 -34 
Q 2366 -91 2075 -91 
Q 1284 -91 818 406 
Q 353 903 353 1747 
Q 353 2603 823 3093 
Q 1294 3584 2113 3584 
Q 2378 3584 2631 3529 
Q 2884 3475 3122 3366 
z
" id="DejaVuSans-63" transform="scale(0.015625)"/>
      <path d="M 1959 3097 
Q 1497 3097 1228 2736 
Q 959 2375 959 1747 
Q 959 1119 1226 758 
Q 1494 397 1959 397 
Q 2419 397 2687 759 
Q 2956 1122 2956 1747 
Q 2956 2369 2687 2733 
Q 2419 3097 1959 3097 
z
M 1959 3584 
Q 2709 3584 3137 3096 
Q 3566 2609 3566 1747 
Q 3566 888 3137 398 
Q 2709 -91 1959 -91 
Q 1206 -91 779 398 
Q 353 888 353 1747 
Q 353 2609 779 3096 
Q 1206 3584 1959 3584 
z
" id="DejaVuSans-6f" transform="scale(0.015625)"/>
     </defs>
     <use xlink:href="#DejaVuSans-6e"/>
     <use x="63.378906" xlink:href="#DejaVuSans-75"/>
     <use x="126.757812" xlink:href="#DejaVuSans-6d"/>
     <use x="224.169922" xlink:href="#DejaVuSans-63"/>
     <use x="279.150391" xlink:href="#DejaVuSans-6f"/>
     <use x="340.332031" xlink:href="#DejaVuSans-6d"/>
     <use x="437.744141" xlink:href="#DejaVuSans-6d"/>
     <use x="535.15625" xlink:href="#DejaVuSans-65"/>
     <use x="596.679688" xlink:href="#DejaVuSans-6e"/>
     <use x="660.058594" xlink:href="#DejaVuSans-74"/>
     <use x="699.267578" xlink:href="#DejaVuSans-73"/>
    </g>
   </g>
   <g id="text_5">
    <!-- minage -->
    <g transform="translate(250.063735 237.318223)scale(0.1 -0.1)">
     <use xlink:href="#DejaVuSans-6d"/>
     <use x="97.412109" xlink:href="#DejaVuSans-69"/>
     <use x="125.195312" xlink:href="#DejaVuSans-6e"/>
     <use x="188.574219" xlink:href="#DejaVuSans-61"/>
     <use x="249.853516" xlink:href="#DejaVuSans-67"/>
     <use x="313.330078" xlink:href="#DejaVuSans-65"/>
    </g>
   </g>
   <g id="text_6">
    <!-- totalvotes -->
    <g transform="translate(282.642296 219.543245)scale(0.1 -0.1)">
     <use xlink:href="#DejaVuSans-74"/>
     <use x="39.208984" xlink:href="#DejaVuSans-6f"/>
     <use x="100.390625" xlink:href="#DejaVuSans-74"/>
     <use x="139.599609" xlink:href="#DejaVuSans-61"/>
     <use x="200.878906" xlink:href="#DejaVuSans-6c"/>
     <use x="228.662109" xlink:href="#DejaVuSans-76"/>
     <use x="287.841797" xlink:href="#DejaVuSans-6f"/>
     <use x="349.023438" xlink:href="#DejaVuSans-74"/>
     <use x="388.232422" xlink:href="#DejaVuSans-65"/>
     <use x="449.755859" xlink:href="#DejaVuSans-73"/>
    </g>
   </g>
   <g id="text_7">
    <!-- blogs -->
    <g transform="translate(302.556901 196.704898)scale(0.1 -0.1)">
     <defs>
      <path d="M 3116 1747 
Q 3116 2381 2855 2742 
Q 2594 3103 2138 3103 
Q 1681 3103 1420 2742 
Q 1159 2381 1159 1747 
Q 1159 1113 1420 752 
Q 1681 391 2138 391 
Q 2594 391 2855 752 
Q 3116 1113 3116 1747 
z
M 1159 2969 
Q 1341 3281 1617 3432 
Q 1894 3584 2278 3584 
Q 2916 3584 3314 3078 
Q 3713 2572 3713 1747 
Q 3713 922 3314 415 
Q 2916 -91 2278 -91 
Q 1894 -91 1617 61 
Q 1341 213 1159 525 
L 1159 0 
L 581 0 
L 581 4863 
L 1159 4863 
L 1159 2969 
z
" id="DejaVuSans-62" transform="scale(0.015625)"/>
     </defs>
     <use xlink:href="#DejaVuSans-62"/>
     <use x="63.476562" xlink:href="#DejaVuSans-6c"/>
     <use x="91.259766" xlink:href="#DejaVuSans-6f"/>
     <use x="152.441406" xlink:href="#DejaVuSans-67"/>
     <use x="215.917969" xlink:href="#DejaVuSans-73"/>
    </g>
   </g>
   <g id="text_8">
    <!-- weblink -->
    <g transform="translate(313.723047 171.137037)scale(0.1 -0.1)">
     <use xlink:href="#DejaVuSans-77"/>
     <use x="81.787109" xlink:href="#DejaVuSans-65"/>
     <use x="143.310547" xlink:href="#DejaVuSans-62"/>
     <use x="206.787109" xlink:href="#DejaVuSans-6c"/>
     <use x="234.570312" xlink:href="#DejaVuSans-69"/>
     <use x="262.353516" xlink:href="#DejaVuSans-6e"/>
     <use x="325.732422" xlink:href="#DejaVuSans-6b"/>
    </g>
   </g>
   <g id="text_9">
    <!-- podcast -->
    <g transform="translate(316.697229 154.517342)scale(0.1 -0.1)">
     <defs>
      <path d="M 1159 525 
L 1159 -1331 
L 581 -1331 
L 581 3500 
L 1159 3500 
L 1159 2969 
Q 1341 3281 1617 3432 
Q 1894 3584 2278 3584 
Q 2916 3584 3314 3078 
Q 3713 2572 3713 1747 
Q 3713 922 3314 415 
Q 2916 -91 2278 -91 
Q 1894 -91 1617 61 
Q 1341 213 1159 525 
z
M 3116 1747 
Q 3116 2381 2855 2742 
Q 2594 3103 2138 3103 
Q 1681 3103 1420 2742 
Q 1159 2381 1159 1747 
Q 1159 1113 1420 752 
Q 1681 391 2138 391 
Q 2594 391 2855 752 
Q 3116 1113 3116 1747 
z
" id="DejaVuSans-70" transform="scale(0.015625)"/>
      <path d="M 2906 2969 
L 2906 4863 
L 3481 4863 
L 3481 0 
L 2906 0 
L 2906 525 
Q 2725 213 2448 61 
Q 2172 -91 1784 -91 
Q 1150 -91 751 415 
Q 353 922 353 1747 
Q 353 2572 751 3078 
Q 1150 3584 1784 3584 
Q 2172 3584 2448 3432 
Q 2725 3281 2906 2969 
z
M 947 1747 
Q 947 1113 1208 752 
Q 1469 391 1925 391 
Q 2381 391 2643 752 
Q 2906 1113 2906 1747 
Q 2906 2381 2643 2742 
Q 2381 3103 1925 3103 
Q 1469 3103 1208 2742 
Q 947 2381 947 1747 
z
" id="DejaVuSans-64" transform="scale(0.015625)"/>
     </defs>
     <use xlink:href="#DejaVuSans-70"/>
     <use x="63.476562" xlink:href="#DejaVuSans-6f"/>
     <use x="124.658203" xlink:href="#DejaVuSans-64"/>
     <use x="188.134766" xlink:href="#DejaVuSans-63"/>
     <use x="243.115234" xlink:href="#DejaVuSans-61"/>
     <use x="304.394531" xlink:href="#DejaVuSans-73"/>
     <use x="356.494141" xlink:href="#DejaVuSans-74"/>
    </g>
   </g>
   <g id="text_10">
    <!-- news -->
    <g transform="translate(317.043442 148.441416)scale(0.1 -0.1)">
     <use xlink:href="#DejaVuSans-6e"/>
     <use x="63.378906" xlink:href="#DejaVuSans-65"/>
     <use x="124.902344" xlink:href="#DejaVuSans-77"/>
     <use x="206.689453" xlink:href="#DejaVuSans-73"/>
    </g>
   </g>
  </g>
 </g>
</svg>
